<svg id="레이어_1" data-name="레이어 1" xmlns="http://www.w3.org/2000/svg" viewBox="0 0 350 354.03"><defs><style>.cls-1{fill:#fff;}.cls-2{fill:#85e5dc;}.cls-3{fill:#76ddd3;}</style></defs><title>대지 1</title><g id="레이어_1-2" data-name="레이어 1-2"><path class="cls-1" d="M166.45,192.55V351.19L121,327.3l-4.65-2.71,1.79-161.83c0-9.13,5-14.8,14.82-23.34L242.85,80.88,225.13,72,119.84,128l-1,.65c-12.21,10.4-18.65,22.2-18.65,34.09V316.37L60.84,295.15V135.81c0-9.06,4.94-18,14.68-26.43L185.5,50l-17.72-8.93L62.33,98l-.93.65C49.3,109,42.93,120.71,42.93,132.54V286.26l-10.24-5.38-11.53-6.06C8.06,267.94,0,255.23,0,241.48V106.05c0-14,8.2-26.83,21.45-33.8L148.05,5.69a50.86,50.86,0,0,1,46.76,0L214.36,16l9.95,5.25,48.37,25.42,10.67,5.61h0l54.17,28.49L186.73,158l-.93.65C173.14,169,166.45,180.72,166.45,192.55Z"/><path class="cls-2" d="M343.49,267l-97.68,53.73V260.48l68.37-39.07-.72-51.28a9.77,9.77,0,0,0-14.22-8.55L245.78,189l-.93.65c-12.64,10.33-19.33,22.07-19.33,33.9V332.39L184.35,354V195.81c0-9,5.16-17.83,15.32-26.27L350,92.49V255.41c0,7-1,7.33-6.51,11.58Z"/><path class="cls-3" d="M294.65,190.51v15.27l-48.84,28.65V224.06a6.48,6.48,0,0,1,.31-2c1.67-5.08,4.35-8.58,6.29-9.66l40.79-22.73a1,1,0,0,1,1.34.44A1,1,0,0,1,294.65,190.51Z"/></g></svg>