<?xml version="1.0" encoding="utf-8"?>
<!-- Generator: Adobe Illustrator 23.0.0, SVG Export Plug-In . SVG Version: 6.00 Build 0)  -->
<svg version="1.1" id="레이어_1" xmlns="http://www.w3.org/2000/svg" xmlns:xlink="http://www.w3.org/1999/xlink" x="0px"
	 y="0px" viewBox="0 0 500 500" style="enable-background:new 0 0 500 500;" xml:space="preserve">
<style type="text/css">
	.st0{fill:#00A99D;}
	.st1{fill:#00A99D;stroke:#00A99D;stroke-miterlimit:10;}
</style>
<path d="M182.27,213.04v158.64l-45.47-23.89l-4.65-2.71l1.79-161.83c0-9.13,4.98-14.8,14.82-23.34l109.91-58.54l-17.72-8.93
	l-105.29,56.06l-0.97,0.65c-12.21,10.4-18.65,22.2-18.65,34.09v153.62l-39.38-21.22V156.3c0-9.06,4.94-17.96,14.68-26.43
	l109.98-59.36l-17.72-8.93L78.15,118.45l-0.93,0.65c-12.1,10.37-18.47,22.1-18.47,33.93v153.72l-10.24-5.38l-11.53-6.06
	c-13.1-6.88-21.16-19.59-21.16-33.34V126.54c0-13.95,8.2-26.83,21.45-33.8l126.6-66.56c14.46-7.59,32.29-7.59,46.76,0l19.55,10.27
	l9.95,5.25l48.37,25.42l10.67,5.61h0.04l54.17,28.49l-150.83,77.28l-0.93,0.65C188.96,189.48,182.27,201.21,182.27,213.04z"/>
<path class="st0" d="M359.31,287.48l-97.68,53.73v-60.24L330,241.9l-0.72-51.28c-0.11-7.24-7.78-11.85-14.22-8.55l-53.46,27.39
	l-0.93,0.65c-12.64,10.33-19.33,22.07-19.33,33.9v108.87l-41.17,21.64V216.3c0-9,5.16-17.83,15.32-26.27l150.33-77.05V275.9
	C365.82,282.87,364.83,283.23,359.31,287.48L359.31,287.48z"/>
<path class="st1" d="M310.47,211v15.27l-48.84,28.65v-10.37c0-0.68,0.09-1.38,0.31-2.03c1.67-5.08,4.35-8.58,6.29-9.66l40.79-22.73
	C309.67,209.78,310.47,210.25,310.47,211z"/>
</svg>
